<?xml version="1.0" encoding="utf-8"?>
<!DOCTYPE svg PUBLIC "-//W3C//DTD SVG 1.1//EN" "http://www.w3.org/Graphics/SVG/1.1/DTD/svg11.dtd">
<svg version="1.1" id="Layer_1" xmlns="http://www.w3.org/2000/svg" xmlns:xlink="http://www.w3.org/1999/xlink" x="0px" y="0px"
	 viewBox="0 0 512 512" enable-background="new 0 0 512 512" xml:space="preserve">
<rect id="XMLID_4_" x="0" y="0" fill="#BE1E2D" width="512" height="512"/>
<circle id="XMLID_2_" fill="none" stroke="#FFFFFF" stroke-width="25.7718" stroke-miterlimit="10" cx="256" cy="256" r="160"/>
<g id="XMLID_90_">
	<path id="XMLID_91_" fill="#FFFFFF" d="M148,295.1V289c0-4.3,0.5-8.1,1.6-11.3s2.7-6.2,5-9c2.3-2.8,6.3-6.4,12-10.8
		c4.1-3.2,6.8-5.5,8.1-6.9c1.3-1.4,2.3-2.8,3-4.1c0.7-1.3,1-2.7,1-4.3c0-5.1-3.1-7.6-9.2-7.6c-6.2,0-12.1,2.3-17.7,6.8v-18.6
		c4.2-2.1,8.2-3.6,11.9-4.4c3.7-0.8,7.5-1.2,11.3-1.2c8.3,0,14.8,2,19.3,5.9c4.6,3.9,6.8,9.5,6.8,16.7c0,5.5-1.2,10.2-3.6,14
		c-2.4,3.8-6.8,7.8-13.3,12c-4.9,3.2-8.2,5.5-9.8,7c-1.6,1.5-2.4,2.7-2.5,3.8h29.9v18.3H148z"/>
	<path id="XMLID_93_" fill="#FFFFFF" d="M266.9,269.3c0,5.2-1.2,9.9-3.7,14.1c-2.5,4.1-6,7.4-10.7,9.7c-4.7,2.3-10.2,3.5-16.5,3.5
		c-3.5,0-7.2-0.3-11-0.9c-3.8-0.6-7-1.4-9.4-2.3v-17.7c5.3,2.8,11,4.3,16.9,4.3c3.9,0,6.9-0.7,8.9-2.1c2-1.4,3-3.4,3-6
		c0-5.6-4.7-8.4-14-8.4c-4.7,0-9,0.4-13,1.3l2.9-45.9h43.2v17.7h-25.6l-0.7,10.7c2.1-0.2,4-0.3,5.8-0.3c7.5,0,13.3,2,17.6,6.1
		C264.8,256.8,266.9,262.3,266.9,269.3z"/>
	<path id="XMLID_95_" fill="#FFFFFF" d="M296.1,285.6c0,3.2-1.1,5.9-3.4,7.8c-2.3,2-5.4,3-9.4,3c-3.7,0-6.7-1-9-3.1
		c-2.3-2.1-3.5-4.7-3.5-7.7c0-3.1,1.1-5.7,3.4-7.6c2.3-1.9,5.4-2.9,9.3-2.9c3.8,0,6.8,1,9.2,2.9C295,280,296.1,282.5,296.1,285.6z"
		/>
	<path id="XMLID_97_" fill="#FFFFFF" d="M355.8,218.6v48.2h10.8V282h-10.9v13.1h-20V282h-32.4v-15.7c5.7-6.5,11.4-14.1,17-22.8
		c5.6-8.6,10.2-16.9,13.7-24.9H355.8z M335.7,266.9v-22.4c-3.3,7.2-7.8,14.7-13.5,22.4H335.7z"/>
</g>
<g id="XMLID_48_">
	<path id="XMLID_49_" fill="#FFFFFF" d="M75.8,479.1l-2.2-5.9H65l-2.1,5.9h-2.1l7.6-19.9h1.9l7.6,19.9H75.8z M69.7,462.6
		c-0.1-0.2-0.1-0.4-0.2-0.6c-0.1-0.2-0.1-0.5-0.2-0.8h-0.1c-0.1,0.3-0.1,0.6-0.2,0.8c-0.1,0.2-0.1,0.4-0.2,0.6l-3.2,8.9H73
		L69.7,462.6z"/>
	<path id="XMLID_52_" fill="#FFFFFF" d="M100.4,471.1c0,5.6-2.4,8.4-7.3,8.4c-4.7,0-7-2.7-7-8.1v-12.2h1.8v12.1
		c0,2.2,0.4,3.8,1.3,4.9c0.9,1.1,2.2,1.6,4.1,1.6c3.5,0,5.2-2.1,5.2-6.3v-12.3h1.8V471.1z"/>
	<path id="XMLID_54_" fill="#FFFFFF" d="M111,479.1v-19.9h5.2c3.4,0,6,0.8,7.7,2.5s2.6,4.1,2.6,7.3c0,1.5-0.2,2.9-0.7,4.2
		c-0.5,1.3-1.2,2.3-2.1,3.2c-0.9,0.9-2,1.6-3.3,2.1c-1.3,0.5-2.8,0.7-4.4,0.7H111z M112.9,460.8v16.6h3.1c1.4,0,2.6-0.2,3.7-0.6
		c1.1-0.4,2-0.9,2.7-1.6c0.8-0.7,1.3-1.6,1.7-2.7s0.6-2.3,0.6-3.6c0-5.4-2.8-8.1-8.5-8.1H112.9z"/>
	<path id="XMLID_57_" fill="#FFFFFF" d="M138.1,479.1h-1.8v-19.9h1.8V479.1z"/>
	<path id="XMLID_59_" fill="#FFFFFF" d="M157.1,479.4c-1.4,0-2.7-0.3-3.9-0.8c-1.1-0.5-2.1-1.2-2.9-2.1s-1.4-2-1.8-3.2
		s-0.6-2.5-0.6-4c0-1.6,0.2-3,0.6-4.3s1.1-2.4,1.9-3.3c0.8-0.9,1.8-1.6,3-2.2c1.2-0.5,2.6-0.8,4.1-0.8c1.4,0,2.7,0.3,3.8,0.8
		c1.1,0.5,2.1,1.2,2.9,2.1c0.8,0.9,1.4,2,1.8,3.2c0.4,1.2,0.6,2.6,0.6,4c0,1.5-0.2,2.9-0.6,4.2c-0.4,1.3-1,2.4-1.8,3.4
		s-1.8,1.7-3,2.2C160,479.2,158.7,479.4,157.1,479.4z M157.3,460.5c-1.2,0-2.3,0.2-3.2,0.7s-1.7,1.1-2.4,1.9s-1.1,1.7-1.5,2.8
		c-0.3,1.1-0.5,2.2-0.5,3.4c0,1.1,0.1,2.2,0.4,3.2c0.3,1,0.8,1.9,1.4,2.7c0.6,0.8,1.4,1.4,2.3,1.9c0.9,0.5,2,0.7,3.3,0.7
		c1.2,0,2.3-0.2,3.3-0.6c0.9-0.4,1.7-1,2.4-1.8c0.6-0.8,1.1-1.7,1.4-2.7s0.5-2.2,0.5-3.5c0-1.2-0.1-2.3-0.4-3.3
		c-0.3-1-0.7-2-1.3-2.7c-0.6-0.8-1.4-1.4-2.3-1.9C159.7,460.7,158.6,460.5,157.3,460.5z"/>
	<path id="XMLID_62_" fill="#FFFFFF" d="M204.4,477.7c-2,1.2-4.2,1.7-6.5,1.7c-1.4,0-2.7-0.2-3.9-0.7c-1.1-0.5-2.1-1.2-2.9-2.1
		c-0.8-0.9-1.4-1.9-1.9-3.2c-0.4-1.2-0.6-2.6-0.6-4.1c0-1,0.1-1.9,0.3-2.8c0.2-0.9,0.5-1.7,0.9-2.5s0.9-1.5,1.5-2.1s1.3-1.2,2-1.7
		c0.8-0.5,1.6-0.8,2.5-1.1c0.9-0.3,1.9-0.4,2.9-0.4c2,0,3.7,0.4,5.3,1.1v2c-1.7-0.9-3.5-1.4-5.5-1.4c-1.2,0-2.3,0.2-3.3,0.7
		c-1,0.4-1.8,1.1-2.5,1.8s-1.2,1.7-1.6,2.8c-0.4,1.1-0.6,2.2-0.6,3.5c0,1.2,0.2,2.4,0.5,3.4c0.3,1,0.8,1.9,1.5,2.7
		c0.6,0.8,1.5,1.4,2.4,1.8c1,0.4,2.1,0.6,3.3,0.6c1.7,0,3.2-0.4,4.4-1.1v-6.1H198v-1.7h6.4V477.7z"/>
	<path id="XMLID_64_" fill="#FFFFFF" d="M222.9,479.4c-1.4,0-2.7-0.3-3.9-0.8c-1.1-0.5-2.1-1.2-2.9-2.1s-1.4-2-1.8-3.2
		s-0.6-2.5-0.6-4c0-1.6,0.2-3,0.6-4.3s1.1-2.4,1.9-3.3c0.8-0.9,1.8-1.6,3-2.2c1.2-0.5,2.6-0.8,4.1-0.8c1.4,0,2.7,0.3,3.8,0.8
		c1.1,0.5,2.1,1.2,2.9,2.1c0.8,0.9,1.4,2,1.8,3.2c0.4,1.2,0.6,2.6,0.6,4c0,1.5-0.2,2.9-0.6,4.2c-0.4,1.3-1,2.4-1.8,3.4
		s-1.8,1.7-3,2.2C225.7,479.2,224.4,479.4,222.9,479.4z M223,460.5c-1.2,0-2.3,0.2-3.2,0.7s-1.7,1.1-2.4,1.9s-1.1,1.7-1.5,2.8
		c-0.3,1.1-0.5,2.2-0.5,3.4c0,1.1,0.1,2.2,0.4,3.2c0.3,1,0.8,1.9,1.4,2.7c0.6,0.8,1.4,1.4,2.3,1.9c0.9,0.5,2,0.7,3.3,0.7
		c1.2,0,2.3-0.2,3.3-0.6c0.9-0.4,1.7-1,2.4-1.8c0.6-0.8,1.1-1.7,1.4-2.7s0.5-2.2,0.5-3.5c0-1.2-0.1-2.3-0.4-3.3
		c-0.3-1-0.7-2-1.3-2.7c-0.6-0.8-1.4-1.4-2.3-1.9C225.4,460.7,224.3,460.5,223,460.5z"/>
	<path id="XMLID_67_" fill="#FFFFFF" d="M242,479.1v-19.9h1.8v18.3h8v1.7H242z"/>
	<path id="XMLID_69_" fill="#FFFFFF" d="M260.9,479.1v-19.9h5.2c3.4,0,6,0.8,7.7,2.5s2.6,4.1,2.6,7.3c0,1.5-0.2,2.9-0.7,4.2
		c-0.5,1.3-1.2,2.3-2.1,3.2c-0.9,0.9-2,1.6-3.3,2.1c-1.3,0.5-2.8,0.7-4.4,0.7H260.9z M262.8,460.8v16.6h3.1c1.4,0,2.6-0.2,3.7-0.6
		c1.1-0.4,2-0.9,2.7-1.6c0.8-0.7,1.3-1.6,1.7-2.7c0.4-1.1,0.6-2.3,0.6-3.6c0-5.4-2.8-8.1-8.5-8.1H262.8z"/>
	<path id="XMLID_72_" fill="#FFFFFF" d="M301.5,471.3v7.8h-1.8v-19.9h5.1c1,0,2,0.1,2.8,0.4c0.8,0.3,1.5,0.6,2,1.1
		c0.6,0.5,1,1.1,1.3,1.8s0.4,1.5,0.4,2.4c0,0.9-0.2,1.8-0.5,2.6c-0.3,0.8-0.8,1.5-1.4,2c-0.6,0.6-1.3,1-2.2,1.3
		c-0.9,0.3-1.9,0.5-3,0.5H301.5z M301.5,460.8v8.8h2.6c1.7,0,3-0.4,3.9-1.2s1.3-1.9,1.3-3.4c0-2.8-1.6-4.2-4.9-4.2H301.5z"/>
	<path id="XMLID_75_" fill="#FFFFFF" d="M329.2,479.4c-1.4,0-2.7-0.3-3.9-0.8c-1.1-0.5-2.1-1.2-2.9-2.1s-1.4-2-1.8-3.2
		s-0.6-2.5-0.6-4c0-1.6,0.2-3,0.6-4.3s1.1-2.4,1.9-3.3c0.8-0.9,1.8-1.6,3-2.2c1.2-0.5,2.6-0.8,4.1-0.8c1.4,0,2.7,0.3,3.8,0.8
		c1.1,0.5,2.1,1.2,2.9,2.1s1.4,2,1.8,3.2c0.4,1.2,0.6,2.6,0.6,4c0,1.5-0.2,2.9-0.6,4.2s-1,2.4-1.8,3.4s-1.8,1.7-3,2.2
		C332.1,479.2,330.7,479.4,329.2,479.4z M329.4,460.5c-1.2,0-2.3,0.2-3.2,0.7s-1.7,1.1-2.4,1.9s-1.1,1.7-1.5,2.8s-0.5,2.2-0.5,3.4
		c0,1.1,0.1,2.2,0.4,3.2c0.3,1,0.8,1.9,1.4,2.7c0.6,0.8,1.4,1.4,2.3,1.9s2,0.7,3.3,0.7s2.3-0.2,3.3-0.6c0.9-0.4,1.7-1,2.4-1.8
		c0.6-0.8,1.1-1.7,1.4-2.7c0.3-1.1,0.5-2.2,0.5-3.5c0-1.2-0.1-2.3-0.4-3.3c-0.3-1-0.7-2-1.3-2.7s-1.4-1.4-2.3-1.9
		S330.7,460.5,329.4,460.5z"/>
	<path id="XMLID_78_" fill="#FFFFFF" d="M348.4,479.1v-19.9h5.2c3.4,0,6,0.8,7.7,2.5s2.6,4.1,2.6,7.3c0,1.5-0.2,2.9-0.7,4.2
		c-0.5,1.3-1.2,2.3-2.1,3.2c-0.9,0.9-2,1.6-3.3,2.1c-1.3,0.5-2.8,0.7-4.4,0.7H348.4z M350.2,460.8v16.6h3.1c1.4,0,2.6-0.2,3.7-0.6
		c1.1-0.4,2-0.9,2.7-1.6c0.8-0.7,1.3-1.6,1.7-2.7c0.4-1.1,0.6-2.3,0.6-3.6c0-5.4-2.8-8.1-8.5-8.1H350.2z"/>
	<path id="XMLID_81_" fill="#FFFFFF" d="M387,478.3c-1.5,0.7-3.3,1.1-5.3,1.1c-1.4,0-2.7-0.2-3.8-0.7c-1.1-0.5-2.1-1.2-2.9-2.1
		c-0.8-0.9-1.4-1.9-1.9-3.1c-0.4-1.2-0.7-2.5-0.7-4c0-1.5,0.2-2.9,0.7-4.2c0.5-1.3,1.1-2.4,2-3.4s1.9-1.7,3.2-2.3
		c1.2-0.5,2.6-0.8,4.2-0.8c1.7,0,3.2,0.3,4.5,0.8v2c-1.4-0.7-3-1.1-4.6-1.1c-1.3,0-2.4,0.2-3.4,0.7c-1,0.4-1.8,1.1-2.5,1.9
		c-0.7,0.8-1.2,1.7-1.6,2.8c-0.4,1.1-0.5,2.3-0.5,3.5c0,1.1,0.2,2.2,0.5,3.2c0.3,1,0.8,1.9,1.4,2.7s1.4,1.4,2.4,1.8
		c0.9,0.4,2,0.7,3.3,0.7c1.9,0,3.6-0.4,5.1-1.2V478.3z"/>
	<path id="XMLID_83_" fill="#FFFFFF" d="M409.9,479.1l-2.2-5.9h-8.6l-2.1,5.9h-2.1l7.6-19.9h1.9l7.5,19.9H409.9z M403.8,462.6
		c-0.1-0.2-0.1-0.4-0.2-0.6c-0.1-0.2-0.1-0.5-0.2-0.8h-0.1c-0.1,0.3-0.1,0.6-0.2,0.8c-0.1,0.2-0.1,0.4-0.2,0.6l-3.2,8.9h7.3
		L403.8,462.6z"/>
	<path id="XMLID_86_" fill="#FFFFFF" d="M420,476.2c0.3,0.2,0.7,0.5,1.1,0.7s0.8,0.4,1.2,0.5c0.4,0.1,0.8,0.2,1.3,0.3
		c0.4,0.1,0.8,0.1,1.2,0.1c1.5,0,2.6-0.3,3.4-0.9s1.1-1.4,1.1-2.5c0-0.5-0.1-1-0.3-1.4c-0.2-0.4-0.4-0.8-0.8-1.1
		c-0.4-0.3-0.8-0.7-1.4-1c-0.6-0.3-1.2-0.7-2-1.1c-0.9-0.5-1.6-0.9-2.2-1.3c-0.6-0.4-1.1-0.8-1.5-1.3c-0.4-0.4-0.7-0.9-0.8-1.4
		c-0.2-0.5-0.3-1.1-0.3-1.7c0-0.8,0.2-1.5,0.5-2.2s0.8-1.2,1.4-1.6c0.6-0.4,1.3-0.8,2.1-1c0.8-0.2,1.6-0.4,2.5-0.4
		c1.6,0,2.9,0.2,3.9,0.7v2c-1.2-0.7-2.6-1-4.1-1c-0.6,0-1.2,0.1-1.7,0.2c-0.5,0.1-1,0.4-1.4,0.6c-0.4,0.3-0.7,0.6-0.9,1
		c-0.2,0.4-0.3,0.9-0.3,1.4c0,0.5,0.1,1,0.2,1.3c0.2,0.4,0.4,0.7,0.7,1.1c0.3,0.3,0.8,0.7,1.3,1c0.6,0.3,1.2,0.7,2,1.1
		c0.8,0.4,1.6,0.9,2.2,1.3s1.1,0.9,1.6,1.3s0.7,0.9,0.9,1.5c0.2,0.5,0.3,1.1,0.3,1.7c0,0.9-0.2,1.6-0.5,2.3
		c-0.3,0.7-0.8,1.2-1.4,1.6s-1.3,0.8-2.1,1s-1.7,0.3-2.7,0.3c-0.3,0-0.7,0-1.1-0.1s-0.9-0.1-1.3-0.2c-0.4-0.1-0.9-0.2-1.3-0.3
		c-0.4-0.1-0.7-0.3-1-0.4V476.2z"/>
	<path id="XMLID_88_" fill="#FFFFFF" d="M446.8,460.8v18.2H445v-18.2h-5.7v-1.7h13.3v1.7H446.8z"/>
</g>
</svg>
